<mxfile host="app.diagrams.net" modified="2022-04-04T16:05:08.470Z" agent="5.0 (Macintosh; Intel Mac OS X 10_15_7) AppleWebKit/537.36 (KHTML, like Gecko) Chrome/99.0.4844.84 Safari/537.36" etag="BSnxigFns8I-fCQPXwnd" version="17.2.5" type="github">
  <diagram id="9qR5tHUcVQeSrMV2cmRk" name="Page-1">
    <mxGraphModel dx="2316" dy="739" grid="1" gridSize="10" guides="1" tooltips="1" connect="1" arrows="1" fold="1" page="1" pageScale="1" pageWidth="850" pageHeight="1100" math="0" shadow="0">
      <root>
        <mxCell id="0" />
        <mxCell id="1" parent="0" />
        <mxCell id="eebsuoNS6QFCWL_-Aq_M-1" value="" style="rounded=0;whiteSpace=wrap;html=1;" parent="1" vertex="1">
          <mxGeometry x="30" y="30" width="790" height="460" as="geometry" />
        </mxCell>
        <mxCell id="eebsuoNS6QFCWL_-Aq_M-2" value="" style="rounded=0;whiteSpace=wrap;html=1;" parent="1" vertex="1">
          <mxGeometry x="30" y="30" width="790" height="70" as="geometry" />
        </mxCell>
        <mxCell id="eebsuoNS6QFCWL_-Aq_M-3" value="LOGO" style="rounded=0;whiteSpace=wrap;html=1;" parent="1" vertex="1">
          <mxGeometry x="50" y="40" width="110" height="50" as="geometry" />
        </mxCell>
        <mxCell id="eebsuoNS6QFCWL_-Aq_M-4" value="Sign In" style="rounded=0;whiteSpace=wrap;html=1;" parent="1" vertex="1">
          <mxGeometry x="690" y="45" width="100" height="40" as="geometry" />
        </mxCell>
        <mxCell id="eebsuoNS6QFCWL_-Aq_M-5" value="LOGO" style="rounded=0;whiteSpace=wrap;html=1;" parent="1" vertex="1">
          <mxGeometry x="440" y="140" width="320" height="300" as="geometry" />
        </mxCell>
        <mxCell id="eebsuoNS6QFCWL_-Aq_M-6" value="At F1 Legacy Gate you enter the realm of the asphalt gladiators. Rate, learn and discuss&lt;br&gt;&amp;nbsp;about drivers, cars, rivalries, circuits and more.&lt;br&gt;Material is added every Sunday.&amp;nbsp;" style="text;html=1;strokeColor=none;fillColor=none;align=center;verticalAlign=middle;whiteSpace=wrap;rounded=0;" parent="1" vertex="1">
          <mxGeometry x="90" y="140" width="330" height="300" as="geometry" />
        </mxCell>
        <mxCell id="eebsuoNS6QFCWL_-Aq_M-7" value="" style="rounded=0;whiteSpace=wrap;html=1;" parent="1" vertex="1">
          <mxGeometry x="61.879999999999995" y="590" width="258.75" height="450" as="geometry" />
        </mxCell>
        <mxCell id="eebsuoNS6QFCWL_-Aq_M-8" value="" style="rounded=0;whiteSpace=wrap;html=1;" parent="1" vertex="1">
          <mxGeometry x="60" y="1170" width="260" height="460" as="geometry" />
        </mxCell>
        <mxCell id="eebsuoNS6QFCWL_-Aq_M-9" value="Circuit Template" style="rounded=0;whiteSpace=wrap;html=1;" parent="1" vertex="1">
          <mxGeometry x="-10" y="1110" width="120" height="60" as="geometry" />
        </mxCell>
        <mxCell id="eebsuoNS6QFCWL_-Aq_M-10" value="picture of Spa" style="rounded=0;whiteSpace=wrap;html=1;" parent="1" vertex="1">
          <mxGeometry x="60" y="1250" width="260" height="140" as="geometry" />
        </mxCell>
        <mxCell id="eebsuoNS6QFCWL_-Aq_M-11" value="description" style="rounded=0;whiteSpace=wrap;html=1;" parent="1" vertex="1">
          <mxGeometry x="82.5" y="1410" width="215" height="100" as="geometry" />
        </mxCell>
        <mxCell id="eebsuoNS6QFCWL_-Aq_M-12" value="table" style="rounded=0;whiteSpace=wrap;html=1;" parent="1" vertex="1">
          <mxGeometry x="82.5" y="1530" width="217.5" height="100" as="geometry" />
        </mxCell>
        <mxCell id="eebsuoNS6QFCWL_-Aq_M-14" value="" style="rounded=0;whiteSpace=wrap;html=1;" parent="1" vertex="1">
          <mxGeometry x="330" y="1170" width="260" height="460" as="geometry" />
        </mxCell>
        <mxCell id="eebsuoNS6QFCWL_-Aq_M-15" value="table" style="rounded=0;whiteSpace=wrap;html=1;" parent="1" vertex="1">
          <mxGeometry x="351.25" y="1170" width="217.5" height="100" as="geometry" />
        </mxCell>
        <mxCell id="eebsuoNS6QFCWL_-Aq_M-17" value="You might also want to read about:" style="text;html=1;strokeColor=none;fillColor=none;align=center;verticalAlign=middle;whiteSpace=wrap;rounded=0;" parent="1" vertex="1">
          <mxGeometry x="370" y="1320" width="180" height="50" as="geometry" />
        </mxCell>
        <mxCell id="eebsuoNS6QFCWL_-Aq_M-18" value="Nurburgring" style="rounded=0;whiteSpace=wrap;html=1;" parent="1" vertex="1">
          <mxGeometry x="350" y="1390" width="218.75" height="60" as="geometry" />
        </mxCell>
        <mxCell id="eebsuoNS6QFCWL_-Aq_M-19" value="Interlagos" style="rounded=0;whiteSpace=wrap;html=1;" parent="1" vertex="1">
          <mxGeometry x="350" y="1470" width="218.75" height="60" as="geometry" />
        </mxCell>
        <mxCell id="eebsuoNS6QFCWL_-Aq_M-20" value="topNav" style="rounded=0;whiteSpace=wrap;html=1;" parent="1" vertex="1">
          <mxGeometry x="60" y="1170" width="260" height="60" as="geometry" />
        </mxCell>
        <mxCell id="eebsuoNS6QFCWL_-Aq_M-21" value="prototipos:&lt;br&gt;- sliding nav" style="rounded=0;whiteSpace=wrap;html=1;" parent="1" vertex="1">
          <mxGeometry x="740" y="1180" width="120" height="60" as="geometry" />
        </mxCell>
        <mxCell id="eebsuoNS6QFCWL_-Aq_M-22" value="home" style="rounded=0;whiteSpace=wrap;html=1;" parent="1" vertex="1">
          <mxGeometry x="20" y="560" width="80" height="30" as="geometry" />
        </mxCell>
        <mxCell id="eebsuoNS6QFCWL_-Aq_M-23" value="topNav" style="rounded=0;whiteSpace=wrap;html=1;" parent="1" vertex="1">
          <mxGeometry x="61.25" y="590" width="258.75" height="60" as="geometry" />
        </mxCell>
        <mxCell id="eebsuoNS6QFCWL_-Aq_M-24" value="" style="rounded=0;whiteSpace=wrap;html=1;" parent="1" vertex="1">
          <mxGeometry x="461.25" y="590" width="258.75" height="450" as="geometry" />
        </mxCell>
        <mxCell id="eebsuoNS6QFCWL_-Aq_M-25" value="each department" style="rounded=0;whiteSpace=wrap;html=1;" parent="1" vertex="1">
          <mxGeometry x="420" y="560" width="80" height="30" as="geometry" />
        </mxCell>
        <mxCell id="eebsuoNS6QFCWL_-Aq_M-26" value="topNav" style="rounded=0;whiteSpace=wrap;html=1;" parent="1" vertex="1">
          <mxGeometry x="461.25" y="590" width="258.75" height="60" as="geometry" />
        </mxCell>
        <mxCell id="eebsuoNS6QFCWL_-Aq_M-30" value="" style="rounded=0;whiteSpace=wrap;html=1;" parent="1" vertex="1">
          <mxGeometry x="62.81" y="650" width="257.19" height="390" as="geometry" />
        </mxCell>
        <mxCell id="eebsuoNS6QFCWL_-Aq_M-29" value="F1 Legacy Gate is an entrance to the realm of the asphalt gladiators. Rate, learn and discuss&amp;nbsp;about drivers, cars, rivalries, circuits and more.&lt;br&gt;New content every Sunday.&amp;nbsp;" style="text;html=1;strokeColor=none;fillColor=none;align=center;verticalAlign=middle;whiteSpace=wrap;rounded=0;" parent="1" vertex="1">
          <mxGeometry x="90" y="690" width="208.12" height="100" as="geometry" />
        </mxCell>
        <mxCell id="eebsuoNS6QFCWL_-Aq_M-31" value="&amp;lt;PICTURE&amp;gt;" style="text;html=1;strokeColor=none;fillColor=none;align=center;verticalAlign=middle;whiteSpace=wrap;rounded=0;" parent="1" vertex="1">
          <mxGeometry x="70" y="1000" width="60" height="30" as="geometry" />
        </mxCell>
        <mxCell id="eebsuoNS6QFCWL_-Aq_M-33" value="Articles about technology, rivalries, curiosities, and more&lt;br&gt;&lt;br&gt;Memorize the specs:&lt;br&gt;-drivers&lt;br&gt;-cars&lt;br&gt;-circuits&lt;br&gt;-Seasons&lt;br&gt;" style="text;html=1;strokeColor=none;fillColor=none;align=center;verticalAlign=middle;whiteSpace=wrap;rounded=0;" parent="1" vertex="1">
          <mxGeometry x="110" y="790" width="150" height="190" as="geometry" />
        </mxCell>
        <mxCell id="eebsuoNS6QFCWL_-Aq_M-35" value="&lt;span&gt;column mobile, row desktop&lt;/span&gt;" style="rounded=0;whiteSpace=wrap;html=1;" parent="1" vertex="1">
          <mxGeometry x="131.25" y="790" width="120" height="30" as="geometry" />
        </mxCell>
        <mxCell id="eebsuoNS6QFCWL_-Aq_M-47" value="" style="rounded=0;whiteSpace=wrap;html=1;" parent="1" vertex="1">
          <mxGeometry x="50" y="1800" width="260" height="460" as="geometry" />
        </mxCell>
        <mxCell id="eebsuoNS6QFCWL_-Aq_M-48" value="Driver template" style="rounded=0;whiteSpace=wrap;html=1;" parent="1" vertex="1">
          <mxGeometry x="-20" y="1740" width="120" height="60" as="geometry" />
        </mxCell>
        <mxCell id="eebsuoNS6QFCWL_-Aq_M-49" value="picture&amp;nbsp;" style="rounded=0;whiteSpace=wrap;html=1;" parent="1" vertex="1">
          <mxGeometry x="50" y="1910" width="260" height="140" as="geometry" />
        </mxCell>
        <mxCell id="eebsuoNS6QFCWL_-Aq_M-50" value="description" style="rounded=0;whiteSpace=wrap;html=1;" parent="1" vertex="1">
          <mxGeometry x="72.5" y="2080" width="215" height="100" as="geometry" />
        </mxCell>
        <mxCell id="eebsuoNS6QFCWL_-Aq_M-51" value="table" style="rounded=0;whiteSpace=wrap;html=1;" parent="1" vertex="1">
          <mxGeometry x="72.5" y="2200" width="217.5" height="60" as="geometry" />
        </mxCell>
        <mxCell id="eebsuoNS6QFCWL_-Aq_M-52" value="" style="rounded=0;whiteSpace=wrap;html=1;" parent="1" vertex="1">
          <mxGeometry x="320" y="1800" width="260" height="460" as="geometry" />
        </mxCell>
        <mxCell id="eebsuoNS6QFCWL_-Aq_M-53" value="table" style="rounded=0;whiteSpace=wrap;html=1;" parent="1" vertex="1">
          <mxGeometry x="341.25" y="1800" width="217.5" height="100" as="geometry" />
        </mxCell>
        <mxCell id="eebsuoNS6QFCWL_-Aq_M-54" value="You might also want to read about:" style="text;html=1;strokeColor=none;fillColor=none;align=center;verticalAlign=middle;whiteSpace=wrap;rounded=0;" parent="1" vertex="1">
          <mxGeometry x="360" y="1950" width="180" height="50" as="geometry" />
        </mxCell>
        <mxCell id="eebsuoNS6QFCWL_-Aq_M-55" value="Alain Prost" style="rounded=0;whiteSpace=wrap;html=1;" parent="1" vertex="1">
          <mxGeometry x="340" y="2020" width="218.75" height="60" as="geometry" />
        </mxCell>
        <mxCell id="eebsuoNS6QFCWL_-Aq_M-56" value="Juan Manuel Fangio" style="rounded=0;whiteSpace=wrap;html=1;" parent="1" vertex="1">
          <mxGeometry x="340" y="2100" width="218.75" height="60" as="geometry" />
        </mxCell>
        <mxCell id="eebsuoNS6QFCWL_-Aq_M-57" value="topNav" style="rounded=0;whiteSpace=wrap;html=1;" parent="1" vertex="1">
          <mxGeometry x="50" y="1800" width="260" height="60" as="geometry" />
        </mxCell>
        <mxCell id="eebsuoNS6QFCWL_-Aq_M-58" value="Name" style="text;html=1;strokeColor=none;fillColor=none;align=center;verticalAlign=middle;whiteSpace=wrap;rounded=0;" parent="1" vertex="1">
          <mxGeometry x="150" y="1870" width="60" height="30" as="geometry" />
        </mxCell>
        <mxCell id="cl1Ilxu53-BpC9PnRYDr-1" value="" style="rounded=0;whiteSpace=wrap;html=1;" vertex="1" parent="1">
          <mxGeometry x="50" y="2380" width="260" height="460" as="geometry" />
        </mxCell>
        <mxCell id="cl1Ilxu53-BpC9PnRYDr-2" value="categories list" style="rounded=0;whiteSpace=wrap;html=1;" vertex="1" parent="1">
          <mxGeometry x="-20" y="2320" width="120" height="60" as="geometry" />
        </mxCell>
        <mxCell id="cl1Ilxu53-BpC9PnRYDr-3" value="" style="rounded=0;whiteSpace=wrap;html=1;" vertex="1" parent="1">
          <mxGeometry x="320" y="2380" width="260" height="460" as="geometry" />
        </mxCell>
        <mxCell id="cl1Ilxu53-BpC9PnRYDr-4" value="topNav" style="rounded=0;whiteSpace=wrap;html=1;" vertex="1" parent="1">
          <mxGeometry x="50" y="2380" width="260" height="60" as="geometry" />
        </mxCell>
        <mxCell id="cl1Ilxu53-BpC9PnRYDr-5" value="Text" style="text;strokeColor=none;fillColor=none;html=1;align=center;verticalAlign=middle;whiteSpace=wrap;rounded=0;hachureGap=4;" vertex="1" parent="1">
          <mxGeometry x="86.25" y="2480" width="190" height="30" as="geometry" />
        </mxCell>
        <mxCell id="cl1Ilxu53-BpC9PnRYDr-6" value="Text" style="text;strokeColor=none;fillColor=none;html=1;align=center;verticalAlign=middle;whiteSpace=wrap;rounded=0;hachureGap=4;" vertex="1" parent="1">
          <mxGeometry x="86.25" y="2520" width="190" height="30" as="geometry" />
        </mxCell>
        <mxCell id="cl1Ilxu53-BpC9PnRYDr-14" value="Text" style="text;strokeColor=none;fillColor=none;html=1;align=center;verticalAlign=middle;whiteSpace=wrap;rounded=0;hachureGap=4;" vertex="1" parent="1">
          <mxGeometry x="85" y="2570" width="190" height="30" as="geometry" />
        </mxCell>
        <mxCell id="cl1Ilxu53-BpC9PnRYDr-15" value="Text" style="text;strokeColor=none;fillColor=none;html=1;align=center;verticalAlign=middle;whiteSpace=wrap;rounded=0;hachureGap=4;" vertex="1" parent="1">
          <mxGeometry x="85" y="2610" width="190" height="30" as="geometry" />
        </mxCell>
        <mxCell id="cl1Ilxu53-BpC9PnRYDr-16" value="Text" style="text;strokeColor=none;fillColor=none;html=1;align=center;verticalAlign=middle;whiteSpace=wrap;rounded=0;hachureGap=4;" vertex="1" parent="1">
          <mxGeometry x="83.75" y="2650" width="190" height="30" as="geometry" />
        </mxCell>
        <mxCell id="cl1Ilxu53-BpC9PnRYDr-17" value="Text" style="text;strokeColor=none;fillColor=none;html=1;align=center;verticalAlign=middle;whiteSpace=wrap;rounded=0;hachureGap=4;" vertex="1" parent="1">
          <mxGeometry x="83.75" y="2690" width="190" height="30" as="geometry" />
        </mxCell>
        <mxCell id="cl1Ilxu53-BpC9PnRYDr-18" value="Text" style="text;strokeColor=none;fillColor=none;html=1;align=center;verticalAlign=middle;whiteSpace=wrap;rounded=0;hachureGap=4;" vertex="1" parent="1">
          <mxGeometry x="82.5" y="2740" width="190" height="30" as="geometry" />
        </mxCell>
        <mxCell id="cl1Ilxu53-BpC9PnRYDr-19" value="Text" style="text;strokeColor=none;fillColor=none;html=1;align=center;verticalAlign=middle;whiteSpace=wrap;rounded=0;hachureGap=4;" vertex="1" parent="1">
          <mxGeometry x="82.5" y="2780" width="190" height="30" as="geometry" />
        </mxCell>
        <mxCell id="cl1Ilxu53-BpC9PnRYDr-20" value="return" style="rounded=0;whiteSpace=wrap;html=1;hachureGap=4;" vertex="1" parent="1">
          <mxGeometry x="50" y="2800" width="90" height="40" as="geometry" />
        </mxCell>
        <mxCell id="cl1Ilxu53-BpC9PnRYDr-21" value="" style="rounded=0;whiteSpace=wrap;html=1;" vertex="1" parent="1">
          <mxGeometry x="50" y="2900" width="260" height="460" as="geometry" />
        </mxCell>
        <mxCell id="cl1Ilxu53-BpC9PnRYDr-22" value="" style="rounded=0;whiteSpace=wrap;html=1;" vertex="1" parent="1">
          <mxGeometry x="320" y="2900" width="260" height="460" as="geometry" />
        </mxCell>
        <mxCell id="cl1Ilxu53-BpC9PnRYDr-23" value="topNav" style="rounded=0;whiteSpace=wrap;html=1;" vertex="1" parent="1">
          <mxGeometry x="50" y="2900" width="260" height="60" as="geometry" />
        </mxCell>
        <mxCell id="cl1Ilxu53-BpC9PnRYDr-24" value="Seasons" style="rounded=0;whiteSpace=wrap;html=1;hachureGap=4;" vertex="1" parent="1">
          <mxGeometry x="-20" y="2890" width="90" height="40" as="geometry" />
        </mxCell>
        <mxCell id="cl1Ilxu53-BpC9PnRYDr-25" value="year" style="text;strokeColor=none;fillColor=none;html=1;align=center;verticalAlign=middle;whiteSpace=wrap;rounded=0;hachureGap=4;" vertex="1" parent="1">
          <mxGeometry x="92.5" y="3000" width="180" height="50" as="geometry" />
        </mxCell>
        <mxCell id="cl1Ilxu53-BpC9PnRYDr-36" style="edgeStyle=none;curved=1;rounded=0;orthogonalLoop=1;jettySize=auto;html=1;entryX=0;entryY=0.5;entryDx=0;entryDy=0;endArrow=open;startSize=14;endSize=14;sourcePerimeterSpacing=8;targetPerimeterSpacing=8;" edge="1" parent="1" source="cl1Ilxu53-BpC9PnRYDr-26" target="cl1Ilxu53-BpC9PnRYDr-27">
          <mxGeometry relative="1" as="geometry" />
        </mxCell>
        <mxCell id="cl1Ilxu53-BpC9PnRYDr-26" value="2021" style="rounded=0;whiteSpace=wrap;html=1;hachureGap=4;" vertex="1" parent="1">
          <mxGeometry x="-790" y="3080" width="90" height="40" as="geometry" />
        </mxCell>
        <mxCell id="cl1Ilxu53-BpC9PnRYDr-27" value="driver standing and constructor standings" style="rounded=0;whiteSpace=wrap;html=1;hachureGap=4;" vertex="1" parent="1">
          <mxGeometry x="-630" y="3075" width="100" height="50" as="geometry" />
        </mxCell>
        <mxCell id="cl1Ilxu53-BpC9PnRYDr-28" value="2020" style="rounded=0;whiteSpace=wrap;html=1;hachureGap=4;" vertex="1" parent="1">
          <mxGeometry x="-790" y="3020" width="90" height="40" as="geometry" />
        </mxCell>
        <mxCell id="cl1Ilxu53-BpC9PnRYDr-29" value="2013" style="rounded=0;whiteSpace=wrap;html=1;hachureGap=4;" vertex="1" parent="1">
          <mxGeometry x="-790" y="2960" width="90" height="40" as="geometry" />
        </mxCell>
        <mxCell id="cl1Ilxu53-BpC9PnRYDr-41" value="por enquanto s&#39;o isso" style="rounded=0;whiteSpace=wrap;html=1;hachureGap=4;" vertex="1" parent="1">
          <mxGeometry x="-545" y="3030" width="120" height="60" as="geometry" />
        </mxCell>
      </root>
    </mxGraphModel>
  </diagram>
</mxfile>
